<svg width="535" height="535" viewBox="0 0 535 535" fill="none" xmlns="http://www.w3.org/2000/svg">
<path d="M264.924 3.24121C268.311 15.7794 277.076 37.1562 289.46 64.3008C302.921 93.8069 320.701 130.225 340.621 169.719C379.88 247.553 427.467 337.359 466.722 409.796C456.04 403.095 434.713 388.088 400.056 387.351L396.86 387.283L399.447 389.16C414.251 399.903 436.957 415.708 455.955 428.823C465.455 435.382 474.031 441.27 480.231 445.518C483.332 447.641 485.839 449.355 487.57 450.538C488.436 451.129 489.108 451.588 489.563 451.899C489.773 452.043 489.938 452.154 490.054 452.233L532.213 531.872C510.726 517.469 473.112 498.53 434.378 481.622C394.006 463.999 352.287 448.525 326.18 442.671C330.078 416.352 328.586 383.029 319.208 356.319C309.724 329.307 292.026 308.741 263.418 309.57C249.102 309.985 238.304 316.483 230.244 326.476C222.21 336.436 216.896 349.864 213.434 364.215C206.635 392.394 206.908 424.45 208.073 441.753C172.016 446.02 129.138 463.364 90.7578 481.942C54.222 499.628 21.5064 518.564 2.71191 528.416C78.0913 404.614 144.563 271.034 191.865 169.21C191.961 169.303 192.062 169.404 192.172 169.509C193.045 170.344 194.342 171.55 196.042 173.041C199.441 176.023 204.455 180.148 210.925 184.731C223.862 193.896 242.637 204.905 265.983 212.271L269.263 213.307L267.05 210.675C260.258 202.599 247.603 192.285 234.927 181.217C222.348 170.233 209.706 158.471 202.284 147.177C222.681 102.744 238.606 66.0999 249.443 40.5352C254.883 27.7043 259.041 17.6641 261.839 10.8311C263.185 7.54342 264.216 4.99773 264.924 3.24121Z" fill="#AD8B73" stroke="black" stroke-width="2"/>
</svg>
