<svg width="150" height="194" viewBox="0 0 150 194" fill="none" xmlns="http://www.w3.org/2000/svg">
<path d="M150 44L135.935 179.416L74.999 194L14.0617 179.416L0 44H150ZM121.659 71.5346H74.9442H27.4019L29.6756 87.8873H74.9442H77.487L74.9442 88.8282L31.3301 104.975L32.7765 120.959L74.9442 121.081L97.5448 121.144L96.0981 142.457L74.9439 147.751V147.735L74.7705 147.778L54.3408 143.193L53.1011 129.963H53.0334H34.0839H34.0172L36.4976 155.504L74.9445 165.61V165.592L75.0139 165.61L113.255 155.688L118.215 104.975H74.9445H74.8379L74.9445 104.934L119.8 87.8873L121.659 71.5346Z" fill="black"/>
<path d="M66.3764 17.9844H60.777C60.6747 17.2599 60.4659 16.6165 60.1506 16.054C59.8352 15.483 59.4304 14.9972 58.9361 14.5966C58.4418 14.196 57.8707 13.8892 57.223 13.6761C56.5838 13.4631 55.8892 13.3565 55.1392 13.3565C53.7841 13.3565 52.6037 13.6932 51.598 14.3665C50.5923 15.0312 49.8125 16.0028 49.2585 17.2812C48.7045 18.5511 48.4276 20.0937 48.4276 21.9091C48.4276 23.7756 48.7045 25.3437 49.2585 26.6136C49.821 27.8835 50.6051 28.8423 51.6108 29.4901C52.6165 30.1378 53.7798 30.4616 55.1009 30.4616C55.8423 30.4616 56.5284 30.3636 57.1591 30.1676C57.7983 29.9716 58.3651 29.6861 58.8594 29.3111C59.3537 28.9276 59.7628 28.4631 60.0866 27.9176C60.419 27.3722 60.6491 26.75 60.777 26.0511L66.3764 26.0767C66.2315 27.2784 65.8693 28.4375 65.2898 29.554C64.7188 30.6619 63.9474 31.6548 62.9759 32.5327C62.0128 33.402 60.8622 34.0923 59.5241 34.6037C58.1946 35.1065 56.6903 35.358 55.0114 35.358C52.6761 35.358 50.5881 34.8295 48.7472 33.7727C46.9148 32.7159 45.4659 31.1861 44.4006 29.1832C43.3438 27.1804 42.8153 24.7557 42.8153 21.9091C42.8153 19.054 43.3523 16.625 44.4261 14.6222C45.5 12.6193 46.9574 11.0937 48.7983 10.0455C50.6392 8.98864 52.7102 8.46023 55.0114 8.46023C56.5284 8.46023 57.9347 8.67329 59.2301 9.09943C60.5341 9.52557 61.6889 10.1477 62.6946 10.9659C63.7003 11.7756 64.5185 12.7685 65.1491 13.9446C65.7884 15.1207 66.1974 16.4673 66.3764 17.9844ZM85.8617 20.9631L80.8759 21.2699C80.7907 20.8437 80.6074 20.4602 80.3262 20.1193C80.0449 19.7699 79.6742 19.4929 79.214 19.2884C78.7622 19.0753 78.2211 18.9688 77.5904 18.9688C76.7466 18.9688 76.035 19.1477 75.4554 19.5057C74.8759 19.8551 74.5861 20.3239 74.5861 20.9119C74.5861 21.3807 74.7736 21.777 75.1486 22.1009C75.5236 22.4247 76.1671 22.6847 77.079 22.8807L80.633 23.5966C82.5421 23.9886 83.9654 24.6193 84.9029 25.4886C85.8404 26.358 86.3091 27.5 86.3091 28.9148C86.3091 30.2017 85.9299 31.331 85.1713 32.3026C84.4213 33.2741 83.3901 34.0327 82.0776 34.5781C80.7736 35.1151 79.2693 35.3835 77.5648 35.3835C74.9654 35.3835 72.8943 34.8423 71.3517 33.7599C69.8176 32.669 68.9185 31.1861 68.6543 29.3111L74.0108 29.0298C74.1728 29.8224 74.5648 30.4276 75.187 30.8452C75.8091 31.2543 76.606 31.4588 77.5776 31.4588C78.5321 31.4588 79.2992 31.2756 79.8787 30.9091C80.4668 30.5341 80.7651 30.0526 80.7736 29.4645C80.7651 28.9702 80.5563 28.5653 80.1472 28.25C79.7381 27.9261 79.1074 27.679 78.2551 27.5085L74.8546 26.831C72.937 26.4474 71.5094 25.7827 70.5719 24.8366C69.6429 23.8906 69.1784 22.6847 69.1784 21.2188C69.1784 19.9574 69.5193 18.8707 70.2012 17.9588C70.8915 17.0469 71.8588 16.3438 73.1032 15.8494C74.356 15.3551 75.8219 15.108 77.5009 15.108C79.981 15.108 81.9327 15.6321 83.356 16.6804C84.7878 17.7287 85.623 19.1562 85.8617 20.9631ZM105.357 20.9631L100.371 21.2699C100.285 20.8437 100.102 20.4602 99.821 20.1193C99.5398 19.7699 99.169 19.4929 98.7088 19.2884C98.2571 19.0753 97.7159 18.9688 97.0852 18.9688C96.2415 18.9688 95.5298 19.1477 94.9503 19.5057C94.3707 19.8551 94.081 20.3239 94.081 20.9119C94.081 21.3807 94.2685 21.777 94.6435 22.1009C95.0185 22.4247 95.6619 22.6847 96.5739 22.8807L100.128 23.5966C102.037 23.9886 103.46 24.6193 104.398 25.4886C105.335 26.358 105.804 27.5 105.804 28.9148C105.804 30.2017 105.425 31.331 104.666 32.3026C103.916 33.2741 102.885 34.0327 101.572 34.5781C100.268 35.1151 98.7642 35.3835 97.0596 35.3835C94.4602 35.3835 92.3892 34.8423 90.8466 33.7599C89.3125 32.669 88.4133 31.1861 88.1491 29.3111L93.5057 29.0298C93.6676 29.8224 94.0596 30.4276 94.6818 30.8452C95.304 31.2543 96.1008 31.4588 97.0724 31.4588C98.027 31.4588 98.794 31.2756 99.3736 30.9091C99.9616 30.5341 100.26 30.0526 100.268 29.4645C100.26 28.9702 100.051 28.5653 99.642 28.25C99.2329 27.9261 98.6023 27.679 97.75 27.5085L94.3494 26.831C92.4318 26.4474 91.0042 25.7827 90.0667 24.8366C89.1378 23.8906 88.6733 22.6847 88.6733 21.2188C88.6733 19.9574 89.0142 18.8707 89.696 17.9588C90.3864 17.0469 91.3537 16.3438 92.598 15.8494C93.8508 15.3551 95.3167 15.108 96.9957 15.108C99.4758 15.108 101.428 15.6321 102.851 16.6804C104.283 17.7287 105.118 19.1562 105.357 20.9631Z" fill="black"/>
</svg>
