<svg width="150" height="194" viewBox="0 0 150 194" fill="none" xmlns="http://www.w3.org/2000/svg">
<path fill-rule="evenodd" clip-rule="evenodd" d="M120.292 89H120.233H48.4332L50.1502 104H118.584C117.581 117.14 114.546 144.979 113.433 157.646L74.9957 167.384V167.413L74.9108 167.45L36.4481 155.27L33.8131 126.5H52.6662L54.0007 141.972L74.9447 149H74.9957L95.9058 142.251L98.0563 119H32.9716C32.6571 115.993 28.6111 76.94 27.9056 74H121.975C121.448 78.95 120.913 84.035 120.292 89ZM0 44L13.651 180.11L74.9108 194L136.332 179.831L150 44H0Z" fill="black"/>
<path d="M36.2756 35V8.81818H41.8111V19.6207H53.0483V8.81818H58.571V35H53.0483V24.1847H41.8111V35H36.2756ZM72.7573 15.3636V19.4545H60.932V15.3636H72.7573ZM63.6166 10.6591H69.0627V28.9659C69.0627 29.4687 69.1394 29.8608 69.2928 30.142C69.4462 30.4148 69.6593 30.6065 69.932 30.7173C70.2132 30.8281 70.5371 30.8835 70.9036 30.8835C71.1593 30.8835 71.4149 30.8622 71.6706 30.8196C71.9263 30.7685 72.1223 30.7301 72.2587 30.7045L73.1152 34.7571C72.8425 34.8423 72.459 34.9403 71.9647 35.0511C71.4703 35.1705 70.8695 35.2429 70.1621 35.2685C68.8496 35.3196 67.699 35.1449 66.7104 34.7443C65.7303 34.3437 64.9675 33.7216 64.422 32.8778C63.8766 32.0341 63.6081 30.9687 63.6166 29.6818V10.6591ZM75.5849 35V15.3636H80.7752V18.8281H81.0053C81.4144 17.6776 82.0962 16.7699 83.0508 16.1051C84.0053 15.4403 85.1474 15.108 86.4769 15.108C87.8235 15.108 88.9698 15.4446 89.9158 16.1179C90.8618 16.7827 91.4925 17.6861 91.8079 18.8281H92.0124C92.413 17.7031 93.1374 16.804 94.1857 16.1307C95.2425 15.4489 96.4911 15.108 97.9315 15.108C99.7638 15.108 101.251 15.6918 102.393 16.8594C103.544 18.0185 104.119 19.6634 104.119 21.794V35H98.6857V22.8679C98.6857 21.777 98.3959 20.9588 97.8164 20.4134C97.2368 19.8679 96.5124 19.5952 95.6431 19.5952C94.6545 19.5952 93.8832 19.9105 93.3292 20.5412C92.7752 21.1634 92.4982 21.9858 92.4982 23.0085V35H87.2184V22.7528C87.2184 21.7898 86.9414 21.0227 86.3874 20.4517C85.842 19.8807 85.1218 19.5952 84.2269 19.5952C83.6218 19.5952 83.0763 19.7486 82.5905 20.0554C82.1133 20.3537 81.734 20.7756 81.4528 21.321C81.1715 21.858 81.0309 22.4886 81.0309 23.2131V35H75.5849ZM113.147 8.81818V35H107.701V8.81818H113.147Z" fill="black"/>
</svg>
