<svg width="55" height="55" viewBox="0 0 55 55" fill="none" xmlns="http://www.w3.org/2000/svg">
<path d="M11.8916 10.0378C13.2724 10.0378 14.3916 11.1571 14.3916 12.5378C14.3916 13.9185 13.2724 15.0378 11.8916 15.0378C10.5109 15.0378 9.3916 13.9185 9.3916 12.5378C9.3916 11.1571 10.5109 10.0378 11.8916 10.0378Z" fill="#0F0F0F"/>
<path fill-rule="evenodd" clip-rule="evenodd" d="M27.5 42.5C19.2157 42.5 12.5 35.7843 12.5 27.5C12.5 19.2157 19.2157 12.5 27.5 12.5C35.7843 12.5 42.5 19.2157 42.5 27.5C42.5 35.7843 35.7843 42.5 27.5 42.5ZM27.5 37.5C21.9772 37.5 17.5 33.0228 17.5 27.5C17.5 21.9772 21.9772 17.5 27.5 17.5C33.0228 17.5 37.5 21.9772 37.5 27.5C37.5 33.0228 33.0228 37.5 27.5 37.5Z" fill="#0F0F0F"/>
<path fill-rule="evenodd" clip-rule="evenodd" d="M53.3651 8.19015C55 11.3988 55 15.5992 55 24V31C55 39.4007 55 43.6012 53.3651 46.8097C51.927 49.6322 49.6323 51.927 46.8098 53.365C43.6012 55 39.4008 55 31 55H24C15.5993 55 11.3988 55 8.19025 53.365C5.36775 51.927 3.073 49.6322 1.635 46.8097C0 43.6012 0 39.4007 0 31V24C0 15.5992 0 11.3988 1.635 8.19015C3.073 5.3677 5.36775 3.073 8.19025 1.6349C11.3988 0 15.5993 0 24 0H31C39.4008 0 43.6012 0 46.8098 1.6349C49.6323 3.073 51.927 5.3677 53.3651 8.19015ZM24 5H31C35.2829 5 38.1944 5.0039 40.4448 5.18775C42.6369 5.36685 43.7579 5.69148 44.5399 6.08993C46.4215 7.04868 47.9513 8.57847 48.9101 10.4601C49.3085 11.2421 49.6332 12.3631 49.8123 14.5552C49.9961 16.8056 50 19.7171 50 24V31C50 35.283 49.9961 38.1943 49.8123 40.4448C49.6332 42.637 49.3085 43.758 48.9101 44.54C47.9513 46.4215 46.4215 47.9512 44.5399 48.91C43.7579 49.3085 42.6369 49.6333 40.4448 49.8122C38.1944 49.996 35.2829 50 31 50H24C19.717 50 16.8057 49.996 14.5552 49.8122C12.363 49.6333 11.242 49.3085 10.46 48.91C8.5785 47.9512 7.04875 46.4215 6.09 44.54C5.6915 43.758 5.36675 42.637 5.18775 40.4448C5.004 38.1943 5 35.283 5 31V24C5 19.7171 5.004 16.8056 5.18775 14.5552C5.36675 12.3631 5.6915 11.2421 6.09 10.4601C7.04875 8.57847 8.5785 7.04868 10.46 6.08993C11.242 5.69148 12.363 5.36685 14.5552 5.18775C16.8057 5.0039 19.717 5 24 5Z" fill="#0F0F0F"/>
</svg>
