<svg width="186" height="194" viewBox="0 0 186 194" fill="none" xmlns="http://www.w3.org/2000/svg">
<path fill-rule="evenodd" clip-rule="evenodd" d="M18.1492 44C17.9819 44.0244 17.9942 44.226 18.0063 44.428C18.0063 94.2327 18.0063 144.03 18.0063 193.833C67.7217 194.166 118.048 193.881 168 193.976C168 143.983 168 93.9925 168 44C118.052 44 68.098 44 18.1492 44ZM94.1428 176.583C90.6726 180.082 85.1963 182.142 78.4592 182.142C67.4094 182.142 61.2744 176.759 57.3582 169.311C61.1279 166.904 64.9803 164.579 68.9073 162.326C70.5089 166.807 75.9189 171.843 82.0237 168.742C85.8934 166.776 85.4466 160.814 85.4466 154.343C85.4466 140.907 85.4466 125.406 85.4466 113.285C85.4343 113.083 85.4223 112.881 85.5881 112.857C90.1988 112.857 94.8092 112.857 99.4186 112.857C99.4186 123.656 99.4186 135.871 99.4186 147.356C99.4186 159.861 100.312 170.366 94.1428 176.583ZM156.022 164.181C155.237 175.889 145.677 182.106 132.783 182.142C120.142 182.179 112.052 176.561 107.117 167.886C110.665 165.444 114.684 163.478 118.382 161.187C121.341 165.813 126.465 170.26 134.066 169.597C138.801 169.185 144.297 165.325 141.194 159.475C139.689 156.64 136.053 155.199 132.783 153.773C122.405 149.246 110.23 145.093 111.395 128.825C111.784 123.39 114.287 119.571 117.527 116.849C120.847 114.061 125.294 112.192 131.214 112.003C141.966 111.658 147.865 116.441 151.888 123.123C148.464 125.733 144.692 127.998 140.909 130.251C139.668 126.436 133.675 122.719 128.647 124.976C126.361 126.001 124.307 129.015 125.511 132.674C126.586 135.936 130.968 137.722 134.493 139.233C145.164 143.8 157.089 148.264 156.022 164.181Z" fill="black"/>
<path d="M12.7585 8.81818H18.2301V27.0739C18.2301 28.7614 17.8509 30.2273 17.0923 31.4716C16.3423 32.7159 15.2983 33.6747 13.9602 34.348C12.6222 35.0213 11.0668 35.358 9.29403 35.358C7.71733 35.358 6.28551 35.081 4.99858 34.527C3.72017 33.9645 2.70597 33.1122 1.95597 31.9702C1.20597 30.8196 0.835227 29.375 0.84375 27.6364H6.35369C6.37074 28.3267 6.51136 28.919 6.77557 29.4134C7.0483 29.8991 7.41903 30.2741 7.88778 30.5384C8.36506 30.794 8.92756 30.9219 9.57528 30.9219C10.2571 30.9219 10.8324 30.777 11.3011 30.4872C11.7784 30.1889 12.1406 29.7543 12.3878 29.1832C12.6349 28.6122 12.7585 27.9091 12.7585 27.0739V8.81818ZM27.584 35.3707C26.3311 35.3707 25.2147 35.1534 24.2345 34.7188C23.2544 34.2756 22.4789 33.6236 21.9078 32.7628C21.3453 31.8935 21.0641 30.8111 21.0641 29.5156C21.0641 28.4247 21.2644 27.5085 21.6649 26.767C22.0655 26.0256 22.611 25.429 23.3013 24.9773C23.9916 24.5256 24.7757 24.1847 25.6536 23.9545C26.5399 23.7244 27.4689 23.5625 28.4405 23.4688C29.5826 23.3494 30.503 23.2386 31.2019 23.1364C31.9007 23.0256 32.4078 22.8636 32.7232 22.6506C33.0385 22.4375 33.1962 22.1222 33.1962 21.7045V21.6278C33.1962 20.8182 32.9405 20.1918 32.4291 19.7486C31.9263 19.3054 31.2104 19.0838 30.2814 19.0838C29.3013 19.0838 28.5215 19.3011 27.9419 19.7358C27.3624 20.1619 26.9789 20.6989 26.7914 21.3466L21.7544 20.9375C22.0101 19.7443 22.513 18.7131 23.263 17.8438C24.013 16.9659 24.9803 16.2926 26.1649 15.8239C27.3581 15.3466 28.7388 15.108 30.307 15.108C31.3979 15.108 32.4419 15.2358 33.4391 15.4915C34.4448 15.7472 35.3354 16.1435 36.111 16.6804C36.8951 17.2173 37.513 17.9077 37.9647 18.7514C38.4164 19.5866 38.6422 20.5881 38.6422 21.7557V35H33.4774V32.277H33.324C33.0087 32.8906 32.5868 33.4318 32.0584 33.9006C31.53 34.3608 30.8951 34.723 30.1536 34.9872C29.4121 35.2429 28.5556 35.3707 27.584 35.3707ZM29.1436 31.6122C29.9448 31.6122 30.6522 31.4545 31.2658 31.1392C31.8794 30.8153 32.361 30.3807 32.7104 29.8352C33.0598 29.2898 33.2345 28.6719 33.2345 27.9815V25.8977C33.0641 26.0085 32.8297 26.1108 32.5314 26.2045C32.2416 26.2898 31.9135 26.3707 31.547 26.4474C31.1806 26.5156 30.8141 26.5795 30.4476 26.6392C30.0811 26.6903 29.7488 26.7372 29.4505 26.7798C28.8113 26.8736 28.253 27.0227 27.7757 27.2273C27.2985 27.4318 26.9277 27.7088 26.6635 28.0582C26.3993 28.3991 26.2672 28.8253 26.2672 29.3366C26.2672 30.0781 26.5357 30.6449 27.0726 31.0369C27.6181 31.4205 28.3084 31.6122 29.1436 31.6122ZM59.7511 15.3636L52.886 35H46.7496L39.8846 15.3636H45.6374L49.7155 29.4134H49.9201L53.9854 15.3636H59.7511ZM66.8901 35.3707C65.6372 35.3707 64.5208 35.1534 63.5406 34.7188C62.5605 34.2756 61.785 33.6236 61.2139 32.7628C60.6514 31.8935 60.3702 30.8111 60.3702 29.5156C60.3702 28.4247 60.5705 27.5085 60.971 26.767C61.3716 26.0256 61.9171 25.429 62.6074 24.9773C63.2977 24.5256 64.0818 24.1847 64.9597 23.9545C65.846 23.7244 66.775 23.5625 67.7466 23.4688C68.8887 23.3494 69.8091 23.2386 70.508 23.1364C71.2068 23.0256 71.7139 22.8636 72.0293 22.6506C72.3446 22.4375 72.5023 22.1222 72.5023 21.7045V21.6278C72.5023 20.8182 72.2466 20.1918 71.7352 19.7486C71.2324 19.3054 70.5165 19.0838 69.5875 19.0838C68.6074 19.0838 67.8276 19.3011 67.248 19.7358C66.6685 20.1619 66.285 20.6989 66.0975 21.3466L61.0605 20.9375C61.3162 19.7443 61.819 18.7131 62.569 17.8438C63.319 16.9659 64.2864 16.2926 65.471 15.8239C66.6642 15.3466 68.0449 15.108 69.6131 15.108C70.704 15.108 71.748 15.2358 72.7452 15.4915C73.7509 15.7472 74.6415 16.1435 75.4171 16.6804C76.2012 17.2173 76.819 17.9077 77.2708 18.7514C77.7225 19.5866 77.9483 20.5881 77.9483 21.7557V35H72.7835V32.277H72.6301C72.3148 32.8906 71.8929 33.4318 71.3645 33.9006C70.8361 34.3608 70.2012 34.723 69.4597 34.9872C68.7182 35.2429 67.8617 35.3707 66.8901 35.3707ZM68.4497 31.6122C69.2509 31.6122 69.9583 31.4545 70.5719 31.1392C71.1855 30.8153 71.6671 30.3807 72.0165 29.8352C72.3659 29.2898 72.5406 28.6719 72.5406 27.9815V25.8977C72.3702 26.0085 72.1358 26.1108 71.8375 26.2045C71.5477 26.2898 71.2196 26.3707 70.8531 26.4474C70.4867 26.5156 70.1202 26.5795 69.7537 26.6392C69.3872 26.6903 69.0548 26.7372 68.7565 26.7798C68.1173 26.8736 67.5591 27.0227 67.0818 27.2273C66.6046 27.4318 66.2338 27.7088 65.9696 28.0582C65.7054 28.3991 65.5733 28.8253 65.5733 29.3366C65.5733 30.0781 65.8418 30.6449 66.3787 31.0369C66.9242 31.4205 67.6145 31.6122 68.4497 31.6122ZM105.404 20.9631L100.418 21.2699C100.333 20.8437 100.149 20.4602 99.868 20.1193C99.5868 19.7699 99.2161 19.4929 98.7558 19.2884C98.3041 19.0753 97.7629 18.9688 97.1322 18.9688C96.2885 18.9688 95.5768 19.1477 94.9973 19.5057C94.4178 19.8551 94.128 20.3239 94.128 20.9119C94.128 21.3807 94.3155 21.777 94.6905 22.1009C95.0655 22.4247 95.709 22.6847 96.6209 22.8807L100.175 23.5966C102.084 23.9886 103.507 24.6193 104.445 25.4886C105.382 26.358 105.851 27.5 105.851 28.9148C105.851 30.2017 105.472 31.331 104.713 32.3026C103.963 33.2741 102.932 34.0327 101.619 34.5781C100.315 35.1151 98.8112 35.3835 97.1067 35.3835C94.5072 35.3835 92.4362 34.8423 90.8936 33.7599C89.3595 32.669 88.4604 31.1861 88.1962 29.3111L93.5527 29.0298C93.7146 29.8224 94.1067 30.4276 94.7288 30.8452C95.351 31.2543 96.1479 31.4588 97.1195 31.4588C98.074 31.4588 98.8411 31.2756 99.4206 30.9091C100.009 30.5341 100.307 30.0526 100.315 29.4645C100.307 28.9702 100.098 28.5653 99.6891 28.25C99.28 27.9261 98.6493 27.679 97.797 27.5085L94.3965 26.831C92.4788 26.4474 91.0513 25.7827 90.1138 24.8366C89.1848 23.8906 88.7203 22.6847 88.7203 21.2188C88.7203 19.9574 89.0612 18.8707 89.743 17.9588C90.4334 17.0469 91.4007 16.3438 92.645 15.8494C93.8979 15.3551 95.3638 15.108 97.0428 15.108C99.5229 15.108 101.475 15.6321 102.898 16.6804C104.33 17.7287 105.165 19.1562 105.404 20.9631ZM117.432 35.3835C115.421 35.3835 113.691 34.9574 112.242 34.1051C110.802 33.2443 109.694 32.0511 108.918 30.5256C108.151 29 107.768 27.2443 107.768 25.2585C107.768 23.2472 108.155 21.483 108.931 19.9659C109.715 18.4403 110.827 17.2514 112.268 16.3991C113.708 15.5384 115.421 15.108 117.407 15.108C119.12 15.108 120.62 15.419 121.907 16.0412C123.194 16.6634 124.212 17.5369 124.962 18.6619C125.712 19.7869 126.126 21.108 126.202 22.625H121.063C120.918 21.6449 120.535 20.8565 119.913 20.2599C119.299 19.6548 118.494 19.3523 117.496 19.3523C116.653 19.3523 115.915 19.5824 115.285 20.0426C114.663 20.4943 114.177 21.1548 113.827 22.0241C113.478 22.8935 113.303 23.946 113.303 25.1818C113.303 26.4347 113.474 27.5 113.815 28.3778C114.164 29.2557 114.654 29.9247 115.285 30.3849C115.915 30.8452 116.653 31.0753 117.496 31.0753C118.119 31.0753 118.677 30.9474 119.171 30.6918C119.674 30.4361 120.087 30.0653 120.411 29.5795C120.744 29.0852 120.961 28.4929 121.063 27.8026H126.202C126.117 29.3026 125.708 30.6236 124.975 31.7656C124.251 32.8991 123.249 33.7855 121.971 34.4247C120.692 35.0639 119.18 35.3835 117.432 35.3835ZM128.969 35V15.3636H134.249V18.7898H134.454C134.812 17.571 135.412 16.6506 136.256 16.0284C137.1 15.3977 138.072 15.0824 139.171 15.0824C139.444 15.0824 139.738 15.0994 140.053 15.1335C140.368 15.1676 140.645 15.2145 140.884 15.2741V20.1065C140.628 20.0298 140.275 19.9616 139.823 19.902C139.371 19.8423 138.958 19.8125 138.583 19.8125C137.782 19.8125 137.066 19.9872 136.435 20.3366C135.813 20.6776 135.319 21.1548 134.952 21.7685C134.594 22.3821 134.415 23.0895 134.415 23.8906V35H128.969ZM142.98 35V15.3636H148.426V35H142.98ZM145.716 12.8324C144.906 12.8324 144.211 12.5639 143.632 12.027C143.061 11.4815 142.775 10.8295 142.775 10.071C142.775 9.32102 143.061 8.67756 143.632 8.14062C144.211 7.59517 144.906 7.32244 145.716 7.32244C146.525 7.32244 147.216 7.59517 147.787 8.14062C148.366 8.67756 148.656 9.32102 148.656 10.071C148.656 10.8295 148.366 11.4815 147.787 12.027C147.216 12.5639 146.525 12.8324 145.716 12.8324ZM152.068 42.3636V15.3636H157.438V18.6619H157.681C157.919 18.1335 158.264 17.5966 158.716 17.0511C159.176 16.4972 159.773 16.0369 160.506 15.6705C161.247 15.2955 162.168 15.108 163.267 15.108C164.699 15.108 166.02 15.483 167.23 16.233C168.44 16.9744 169.408 18.0952 170.132 19.5952C170.857 21.0866 171.219 22.9574 171.219 25.2074C171.219 27.3977 170.865 29.2472 170.158 30.7557C169.459 32.2557 168.504 33.3935 167.294 34.169C166.092 34.9361 164.746 35.3196 163.254 35.3196C162.198 35.3196 161.298 35.1449 160.557 34.7955C159.824 34.446 159.223 34.0071 158.754 33.4787C158.286 32.9418 157.928 32.4006 157.681 31.8551H157.514V42.3636H152.068ZM157.399 25.1818C157.399 26.3494 157.561 27.3679 157.885 28.2372C158.209 29.1065 158.678 29.7841 159.291 30.2699C159.905 30.7472 160.651 30.9858 161.529 30.9858C162.415 30.9858 163.165 30.7429 163.779 30.2571C164.392 29.7628 164.857 29.081 165.172 28.2116C165.496 27.3338 165.658 26.3239 165.658 25.1818C165.658 24.0483 165.5 23.0511 165.185 22.1903C164.869 21.3295 164.405 20.6562 163.791 20.1705C163.178 19.6847 162.423 19.4418 161.529 19.4418C160.642 19.4418 159.892 19.6761 159.279 20.1449C158.673 20.6136 158.209 21.2784 157.885 22.1392C157.561 23 157.399 24.0142 157.399 25.1818ZM184.574 15.3636V19.4545H172.749V15.3636H184.574ZM175.434 10.6591H180.88V28.9659C180.88 29.4687 180.956 29.8608 181.11 30.142C181.263 30.4148 181.476 30.6065 181.749 30.7173C182.03 30.8281 182.354 30.8835 182.72 30.8835C182.976 30.8835 183.232 30.8622 183.488 30.8196C183.743 30.7685 183.939 30.7301 184.076 30.7045L184.932 34.7571C184.659 34.8423 184.276 34.9403 183.782 35.0511C183.287 35.1705 182.686 35.2429 181.979 35.2685C180.666 35.3196 179.516 35.1449 178.527 34.7443C177.547 34.3437 176.784 33.7216 176.239 32.8778C175.693 32.0341 175.425 30.9687 175.434 29.6818V10.6591Z" fill="black"/>
</svg>
