<svg width="48" height="48" viewBox="0 0 48 48" fill="none" xmlns="http://www.w3.org/2000/svg">
<path d="M23.5495 47.0991C10.5973 47.0991 0 36.5018 0 23.5495C0 10.5973 10.5973 0 23.5495 0C36.5018 0 47.0991 10.5973 47.0991 23.5495C47.0991 36.5018 36.5018 47.0991 23.5495 47.0991ZM18.6434 33.3618C19.8209 39.4455 21.9796 43.1741 23.5495 43.1741C25.1195 43.1741 27.2782 39.4455 28.4557 33.3618H18.6434ZM32.5769 33.3618C31.9881 36.698 31.0069 39.838 29.8294 42.1929C34.3431 40.6229 38.268 37.483 40.6229 33.3618H32.5769ZM6.47612 33.3618C8.83107 37.483 12.756 40.6229 17.2697 42.1929C16.0922 39.838 15.111 36.698 14.5222 33.3618H6.47612ZM33.1656 29.4369H42.3892C42.7817 27.6707 43.1741 25.512 43.1741 23.5495C43.1741 21.5871 42.7817 19.4284 42.1929 17.6621H32.9693C33.3618 19.6246 33.3618 21.5871 33.3618 23.5495C33.3618 25.512 33.3618 27.4745 33.1656 29.4369ZM18.0546 29.4369H29.2407C29.4369 27.6707 29.6332 25.7082 29.6332 23.5495C29.6332 21.3908 29.4369 19.4284 29.2407 17.6621H18.0546C17.8584 19.4284 17.6621 21.3908 17.6621 23.5495C17.6621 25.7082 17.8584 27.6707 18.0546 29.4369ZM4.90615 29.4369H14.1297C13.9335 27.4745 13.9335 25.512 13.9335 23.5495C13.9335 21.5871 13.9335 19.6246 14.1297 17.6621H4.90615C4.31741 19.4284 3.92492 21.5871 3.92492 23.5495C3.92492 25.512 4.31741 27.6707 4.90615 29.4369ZM32.5769 13.7372H40.6229C38.268 9.61606 34.3431 6.47612 29.8294 4.90615C31.0069 7.26111 31.9881 10.401 32.5769 13.7372ZM18.6434 13.7372H28.6519C27.4745 7.6536 25.3157 3.92492 23.7458 3.92492C22.1758 3.92492 19.8209 7.6536 18.6434 13.7372ZM6.47612 13.7372H14.5222C15.111 10.401 16.0922 7.26111 17.2697 4.90615C12.756 6.47612 9.02732 9.61606 6.47612 13.7372Z" fill="black"/>
</svg>
