<svg width="150" height="205" viewBox="0 0 150 205" fill="none" xmlns="http://www.w3.org/2000/svg">
<path d="M73.8687 55.0123C67.777 55.0185 61.8113 55.5428 56.0157 56.5421L56.6331 56.4558C41.3692 59.0959 38.6037 64.6228 38.6037 74.8131V88.2727H74.675V92.7572H25.0723C24.9463 92.7572 24.8014 92.751 24.6565 92.751C13.7142 92.751 4.59868 100.394 2.56392 110.522L2.53872 110.664C0.926036 116.043 0 122.224 0 128.614C0 135.005 0.926036 141.186 2.65842 147.027L2.53872 146.559C5.10265 157.014 11.2258 164.459 21.6894 164.459H34.0932V148.323C34.3767 136.276 44.3111 126.591 56.6079 126.382H56.6268H92.654C102.632 126.301 110.69 118.369 110.69 108.585C110.69 108.53 110.69 108.481 110.69 108.425V74.8008C110.035 65.1718 102.412 57.4674 92.7485 56.4496L92.6603 56.4434C87.2049 55.5243 80.9242 55 74.5238 55C74.2971 55 74.0766 55 73.8498 55H73.8813L73.8687 55.0123ZM54.3652 65.838H54.4723C58.271 65.838 61.3452 68.8544 61.3452 72.5678C61.3452 76.2812 58.2647 79.2976 54.4723 79.2976C50.6863 79.2976 47.6121 76.2936 47.5995 72.5863C47.5995 72.574 47.5995 72.5555 47.5995 72.537C47.5995 68.8605 50.6233 65.875 54.3652 65.838Z" fill="black"/>
<path d="M115.731 93.5135V109.363C115.593 121.689 105.649 131.671 93.2788 131.995H93.2474H57.3C47.3436 132.201 39.3483 140.238 39.3105 150.133V184.132C39.3105 193.802 47.7898 199.495 57.3 202.275C62.6742 204.002 68.8592 205 75.2768 205C81.6944 205 87.8795 204.002 93.6748 202.157L93.2474 202.275C102.299 199.675 111.237 194.432 111.237 184.132V170.515H75.2894V165.982H129.233C139.692 165.982 143.589 158.743 147.228 147.888C148.988 142.464 150 136.223 150 129.745C150 123.267 148.988 117.025 147.109 111.171L147.228 111.607C144.645 101.282 139.686 93.5135 129.233 93.5135H115.731ZM95.5165 179.599H95.6234C99.4136 179.599 102.481 182.648 102.481 186.401C102.481 190.155 99.4073 193.204 95.6234 193.204C91.8331 193.204 88.7657 190.155 88.7657 186.401C88.7657 186.395 88.7657 186.383 88.7657 186.376C88.7657 186.364 88.7657 186.345 88.7657 186.333C88.7657 182.623 91.7828 179.618 95.5165 179.599Z" fill="black"/>
<path d="M21.2756 35V8.81818H31.6051C33.5909 8.81818 35.2827 9.19744 36.6804 9.95597C38.0781 10.706 39.1435 11.75 39.8764 13.0881C40.6179 14.4176 40.9886 15.9517 40.9886 17.6903C40.9886 19.429 40.6136 20.9631 39.8636 22.2926C39.1136 23.6222 38.027 24.6577 36.6037 25.3991C35.1889 26.1406 33.4759 26.5114 31.4645 26.5114H24.8807V22.0753H30.5696C31.6349 22.0753 32.5128 21.892 33.2031 21.5256C33.902 21.1506 34.4219 20.6349 34.7628 19.9787C35.1122 19.3139 35.2869 18.5511 35.2869 17.6903C35.2869 16.821 35.1122 16.0625 34.7628 15.4148C34.4219 14.7585 33.902 14.2514 33.2031 13.8935C32.5043 13.527 31.6179 13.3438 30.544 13.3438H26.8111V35H21.2756ZM47.1241 42.3636C46.4338 42.3636 45.786 42.3082 45.1809 42.1974C44.5843 42.0952 44.09 41.9631 43.698 41.8011L44.9252 37.7358C45.5644 37.9318 46.1397 38.0384 46.6511 38.0554C47.171 38.0724 47.6184 37.9531 47.9934 37.6974C48.3769 37.4418 48.688 37.0071 48.9267 36.3935L49.2463 35.5625L42.2022 15.3636H47.9295L51.9948 29.7841H52.1994L56.3031 15.3636H62.0687L54.4366 37.1222C54.0701 38.179 53.5715 39.0994 52.9409 39.8835C52.3187 40.6761 51.5304 41.2855 50.5758 41.7116C49.6213 42.1463 48.4707 42.3636 47.1241 42.3636ZM74.5802 15.3636V19.4545H62.755V15.3636H74.5802ZM65.4396 10.6591H70.8856V28.9659C70.8856 29.4687 70.9623 29.8608 71.1158 30.142C71.2692 30.4148 71.4822 30.6065 71.755 30.7173C72.0362 30.8281 72.3601 30.8835 72.7265 30.8835C72.9822 30.8835 73.2379 30.8622 73.4936 30.8196C73.7493 30.7685 73.9453 30.7301 74.0817 30.7045L74.9382 34.7571C74.6655 34.8423 74.2819 34.9403 73.7876 35.0511C73.2933 35.1705 72.6925 35.2429 71.9851 35.2685C70.6726 35.3196 69.522 35.1449 68.5334 34.7443C67.5533 34.3437 66.7905 33.7216 66.245 32.8778C65.6996 32.0341 65.4311 30.9687 65.4396 29.6818V10.6591ZM83.2757 23.6477V35H77.8297V8.81818H83.1223V18.8281H83.3524C83.7956 17.669 84.5115 16.7614 85.5002 16.1051C86.4888 15.4403 87.7289 15.108 89.2203 15.108C90.584 15.108 91.7729 15.4062 92.7871 16.0028C93.8098 16.5909 94.6024 17.4389 95.1649 18.5469C95.736 19.6463 96.0172 20.9631 96.0087 22.4972V35H90.5627V23.4688C90.5712 22.2585 90.2644 21.3168 89.6422 20.6435C89.0286 19.9702 88.1678 19.6335 87.0598 19.6335C86.3183 19.6335 85.6621 19.7912 85.0911 20.1065C84.5286 20.4219 84.0854 20.8821 83.7615 21.4872C83.4462 22.0838 83.2842 22.804 83.2757 23.6477ZM108.447 35.3835C106.461 35.3835 104.744 34.9616 103.295 34.1179C101.854 33.2656 100.742 32.081 99.9581 30.5639C99.174 29.0384 98.7819 27.2699 98.7819 25.2585C98.7819 23.2301 99.174 21.4574 99.9581 19.9403C100.742 18.4148 101.854 17.2301 103.295 16.3864C104.744 15.5341 106.461 15.108 108.447 15.108C110.433 15.108 112.146 15.5341 113.586 16.3864C115.035 17.2301 116.151 18.4148 116.935 19.9403C117.719 21.4574 118.111 23.2301 118.111 25.2585C118.111 27.2699 117.719 29.0384 116.935 30.5639C116.151 32.081 115.035 33.2656 113.586 34.1179C112.146 34.9616 110.433 35.3835 108.447 35.3835ZM108.472 31.1648C109.376 31.1648 110.13 30.9091 110.735 30.3977C111.34 29.8778 111.796 29.1705 112.103 28.2756C112.418 27.3807 112.576 26.3622 112.576 25.2202C112.576 24.0781 112.418 23.0597 112.103 22.1648C111.796 21.2699 111.34 20.5625 110.735 20.0426C110.13 19.5227 109.376 19.2628 108.472 19.2628C107.56 19.2628 106.793 19.5227 106.171 20.0426C105.558 20.5625 105.093 21.2699 104.778 22.1648C104.471 23.0597 104.317 24.0781 104.317 25.2202C104.317 26.3622 104.471 27.3807 104.778 28.2756C105.093 29.1705 105.558 29.8778 106.171 30.3977C106.793 30.9091 107.56 31.1648 108.472 31.1648ZM126.379 23.6477V35H120.933V15.3636H126.123V18.8281H126.353C126.788 17.6861 127.516 16.7827 128.539 16.1179C129.562 15.4446 130.802 15.108 132.259 15.108C133.623 15.108 134.812 15.4062 135.826 16.0028C136.84 16.5994 137.629 17.4517 138.191 18.5597C138.754 19.6591 139.035 20.9716 139.035 22.4972V35H133.589V23.4688C133.597 22.267 133.291 21.3295 132.668 20.6562C132.046 19.9744 131.19 19.6335 130.099 19.6335C129.366 19.6335 128.718 19.7912 128.156 20.1065C127.602 20.4219 127.167 20.8821 126.852 21.4872C126.545 22.0838 126.387 22.804 126.379 23.6477Z" fill="black"/>
</svg>
