<svg width="150" height="185" viewBox="0 0 150 185" fill="none" xmlns="http://www.w3.org/2000/svg">
<path d="M139.214 99.783C142.73 98.4641 146.404 96.8732 150 95.0001V110C150 125.533 116.421 138.125 75 138.125C33.5786 138.125 0 125.533 0 110V95.0001C3.5965 96.8732 7.26975 98.4641 10.7866 99.783C28.512 106.43 51.2497 110 75 110C98.7503 110 121.488 106.43 139.214 99.783Z" fill="black"/>
<path d="M0 141.875V156.875C0 172.408 33.5786 185 75 185C116.421 185 150 172.408 150 156.875V141.875C146.404 143.748 142.73 145.339 139.214 146.658C121.488 153.305 98.7503 156.875 75 156.875C51.2497 156.875 28.512 153.305 10.7866 146.658C7.26975 145.339 3.5965 143.748 0 141.875Z" fill="black"/>
<path d="M75 40C116.421 40 150 52.592 150 68.125C150 83.658 116.421 96.25 75 96.25C33.5786 96.25 0 83.658 0 68.125C0 52.592 33.5786 40 75 40Z" fill="black"/>
<path d="M55.4787 16.348C55.3764 15.3168 54.9375 14.5156 54.1619 13.9446C53.3864 13.3736 52.3338 13.0881 51.0043 13.0881C50.1009 13.0881 49.3381 13.2159 48.7159 13.4716C48.0938 13.7187 47.6165 14.0639 47.2841 14.5071C46.9602 14.9503 46.7983 15.4531 46.7983 16.0156C46.7813 16.4844 46.8793 16.8935 47.0923 17.2429C47.3139 17.5923 47.6165 17.8949 48 18.1506C48.3835 18.3977 48.8267 18.6151 49.3295 18.8026C49.8324 18.9815 50.3693 19.1349 50.9403 19.2628L53.2926 19.8253C54.4347 20.081 55.483 20.4219 56.4375 20.848C57.392 21.2741 58.2188 21.7983 58.9176 22.4205C59.6165 23.0426 60.1577 23.7756 60.5412 24.6193C60.9332 25.4631 61.1335 26.4304 61.142 27.5213C61.1335 29.1236 60.7244 30.5128 59.9148 31.6889C59.1136 32.8565 57.9545 33.7642 56.4375 34.4119C54.929 35.0511 53.1094 35.3707 50.9787 35.3707C48.8651 35.3707 47.0241 35.0469 45.456 34.3991C43.8963 33.7514 42.6776 32.7926 41.7997 31.5227C40.9304 30.2443 40.4744 28.6634 40.4318 26.7798H45.7884C45.848 27.6577 46.0994 28.3906 46.5426 28.9787C46.9943 29.5582 47.5952 29.9972 48.3452 30.2955C49.1037 30.5852 49.9602 30.7301 50.9148 30.7301C51.8523 30.7301 52.6662 30.5937 53.3565 30.321C54.0554 30.0483 54.5966 29.669 54.9801 29.1832C55.3636 28.6974 55.5554 28.1392 55.5554 27.5085C55.5554 26.9205 55.3807 26.4261 55.0312 26.0256C54.6903 25.625 54.1875 25.2841 53.5227 25.0028C52.8665 24.7216 52.0611 24.4659 51.1065 24.2358L48.2557 23.5199C46.0483 22.983 44.3054 22.1435 43.027 21.0014C41.7486 19.8594 41.1136 18.321 41.1222 16.3864C41.1136 14.8011 41.5355 13.4162 42.3878 12.2315C43.2486 11.0469 44.429 10.1222 45.929 9.45739C47.429 8.79261 49.1335 8.46023 51.0426 8.46023C52.9858 8.46023 54.6818 8.79261 56.1307 9.45739C57.5881 10.1222 58.7216 11.0469 59.5312 12.2315C60.3409 13.4162 60.7585 14.7884 60.7841 16.348H55.4787ZM74.0275 25.8977H78.7321L81.0971 28.9403L83.4238 31.6506L87.8088 37.1477H82.644L79.6269 33.4403L78.0801 31.2415L74.0275 25.8977ZM88.2051 21.9091C88.2051 24.7642 87.6639 27.1932 86.5815 29.196C85.5076 31.1989 84.0417 32.7287 82.1838 33.7855C80.3343 34.8338 78.2548 35.358 75.9451 35.358C73.6184 35.358 71.5304 34.8295 69.6809 33.7727C67.8315 32.7159 66.3698 31.1861 65.296 29.1832C64.2221 27.1804 63.6852 24.7557 63.6852 21.9091C63.6852 19.054 64.2221 16.625 65.296 14.6222C66.3698 12.6193 67.8315 11.0937 69.6809 10.0455C71.5304 8.98864 73.6184 8.46023 75.9451 8.46023C78.2548 8.46023 80.3343 8.98864 82.1838 10.0455C84.0417 11.0937 85.5076 12.6193 86.5815 14.6222C87.6639 16.625 88.2051 19.054 88.2051 21.9091ZM82.5929 21.9091C82.5929 20.0597 82.3159 18.5 81.7619 17.2301C81.2164 15.9602 80.4451 14.9972 79.448 14.3409C78.4508 13.6847 77.2832 13.3565 75.9451 13.3565C74.6071 13.3565 73.4394 13.6847 72.4423 14.3409C71.4451 14.9972 70.6696 15.9602 70.1156 17.2301C69.5701 18.5 69.2974 20.0597 69.2974 21.9091C69.2974 23.7585 69.5701 25.3182 70.1156 26.5881C70.6696 27.858 71.4451 28.821 72.4423 29.4773C73.4394 30.1335 74.6071 30.4616 75.9451 30.4616C77.2832 30.4616 78.4508 30.1335 79.448 29.4773C80.4451 28.821 81.2164 27.858 81.7619 26.5881C82.3159 25.3182 82.5929 23.7585 82.5929 21.9091ZM91.5856 35V8.81818H97.1211V30.4361H108.346V35H91.5856Z" fill="black"/>
</svg>
