<svg width="55" height="39" viewBox="0 0 55 39" fill="none" xmlns="http://www.w3.org/2000/svg">
<path fill-rule="evenodd" clip-rule="evenodd" d="M21.9682 26.3618V10.9293C27.4468 13.5073 31.6899 15.9976 36.7082 18.6825C32.5692 20.9779 27.4468 23.5535 21.9682 26.3618ZM52.5003 3.25403C51.5552 2.00894 49.9445 1.03974 48.2297 0.718874C43.1895 -0.238263 11.7452 -0.240986 6.70767 0.718874C5.33255 0.976659 4.10805 1.59976 3.05616 2.56787C-1.376 6.6816 0.012832 28.7422 1.08115 32.3157C1.53039 33.8624 2.11115 34.978 2.84254 35.7102C3.78485 36.6783 5.07503 37.3449 6.55698 37.6438C10.707 38.5022 32.0871 38.9822 48.142 37.7727C49.6213 37.5149 50.9306 36.8269 51.9633 35.8176C56.0613 31.7203 55.7819 8.42087 52.5003 3.25403Z" fill="black"/>
</svg>
